Coordinates
version=1
nRows=13
nColumns=40
inDegrees=yes

Units are S.I. units (second, meters, Newtons, ...)
Angles are in degrees.

endheader
time	pelvis_tilt	pelvis_list	pelvis_rotation	pelvis_tx	pelvis_ty	pelvis_tz	hip_flexion_r	hip_adduction_r	hip_rotation_r	knee_angle_r	knee_angle_r_beta	ankle_angle_r	subtalar_angle_r	mtp_angle_r	hip_flexion_l	hip_adduction_l	hip_rotation_l	knee_angle_l	knee_angle_l_beta	ankle_angle_l	subtalar_angle_l	mtp_angle_l	lumbar_extension	lumbar_bending	lumbar_rotation	arm_flex_r	arm_add_r	arm_rot_r	elbow_flex_r	pro_sup_r	wrist_flex_r	wrist_dev_r	arm_flex_l	arm_add_l	arm_rot_l	elbow_flex_l	pro_sup_l	wrist_flex_l	wrist_dev_l
     30.35500000	     -7.20952215	     -5.93319962	      0.71378302	      1.03970043	      0.92037176	      0.46313829	      3.03114355	     -1.94175936	    -14.62201177	     25.61574729	     25.61574729	     13.32570205	      2.80541521	    -11.38476160	     29.97012596	     -6.65451164	     -0.84729411	     26.84486249	     26.84486249	      7.48889214	    -15.25174760	      9.85162539	    -11.02408772	      7.04246462	      4.70798181	     31.76619704	    -14.78873860	      9.29169689	     96.04939473	     44.59510585	      0.00000000	      0.00000000	    -12.50899586	     -8.55910468	     -6.49740210	     41.17753525	     46.23138589	      0.00000000	      0.00000000
     30.36657143	     -7.29969424	     -5.87000784	      0.58600324	      1.03974454	      0.92170082	      0.45991774	      4.58882469	     -2.71317002	    -13.97057125	     29.10709615	     29.10709615	     11.89650458	      1.24298780	    -12.35933124	     29.25754057	     -6.48158525	     -1.19222213	     26.53066584	     26.53066584	      7.94324926	    -14.95674493	      9.61861053	    -10.97863060	      7.08305508	      4.73297975	     29.37846105	    -15.25465259	      8.99090021	     94.64316246	     44.64486731	      0.00000000	      0.00000000	    -11.94455022	     -8.66796559	     -6.72966349	     42.48149803	     46.27585822	      0.00000000	      0.00000000
     30.37814286	     -7.35178743	     -5.78935159	      0.43723215	      1.03968034	      0.92290575	      0.45686463	      6.31096158	     -3.46844199	    -13.19628463	     32.84976729	     32.84976729	     10.23835259	     -0.60649170	    -13.27403654	     28.51128062	     -6.32641053	     -1.65889058	     26.22667935	     26.22667935	      8.38419191	    -14.59302470	      9.32277864	    -10.95236374	      7.09176185	      4.75204611	     26.91308418	    -15.60484684	      8.59936500	     92.99011674	     44.70429284	      0.00000000	      0.00000000	    -11.39995110	     -8.84175608	     -6.97851308	     44.02026870	     46.32354777	      0.00000000	      0.00000000
     30.38971429	     -7.35515813	     -5.90306309	      0.31583644	      1.03946492	      0.92397284	      0.45419901	      8.02361713	     -3.79853491	    -12.13406585	     36.36761316	     36.36761316	      7.44355058	     -3.65120052	    -16.13615568	     27.78624573	     -6.41873773	     -2.10580413	     26.00166475	     26.00166475	      8.69222129	    -14.08240782	      8.38777124	    -11.01771864	      7.22846460	      4.54024049	     24.57635959	    -15.01104117	      6.69318556	     90.33589999	     44.86075595	      0.00000000	      0.00000000	    -12.08061604	     -9.21809358	     -7.24387663	     48.64167639	     46.41448724	      0.00000000	      0.00000000
     30.40128571	     -7.41893778	     -5.81147164	      0.13565285	      1.03902385	      0.92480972	      0.45153532	     10.12898349	     -4.49188129	    -11.33132091	     40.46462185	     40.46462185	      5.62725978	     -5.42532160	    -16.13359141	     27.08050224	     -6.29469332	     -2.62392339	     25.70500154	     25.70500154	      9.10674529	    -13.61574690	      8.05751271	    -11.01588932	      7.23372156	      4.55028772	     22.24049213	    -15.48771687	      6.62601207	     88.31683671	     44.92076280	      0.00000000	      0.00000000	    -11.32278685	     -9.47155215	     -7.41499143	     49.82535511	     46.45563638	      0.00000000	      0.00000000
     30.41285714	     -7.40019437	     -5.88105684	     -0.02562227	      1.03847419	      0.92555384	      0.44925327	     12.23039921	     -4.79005087	    -10.31335886	     44.47617644	     44.47617644	      3.94671274	     -7.65311054	    -14.93488652	     26.40231483	     -6.41330279	     -3.23646091	     25.59449068	     25.59449068	      9.54168671	    -12.87875997	      7.18356638	    -11.08275270	      7.32763387	      4.31677102	     20.29268155	    -14.95916513	      5.22506608	     84.65993674	     45.08161099	      0.00000000	      0.00000000	    -11.35928318	     -9.96269029	     -7.37487926	     53.09474808	     46.51027674	      0.00000000	      0.00000000
     30.42442857	     -7.38323799	     -5.69847507	     -0.17117987	      1.03775257	      0.92609161	      0.44683372	     14.41543135	     -5.52208790	     -9.67319923	     48.44662833	     48.44662833	      2.27830531	     -9.03383692	    -14.40528620	     25.70460241	     -6.18683745	     -3.70116607	     25.43308158	     25.43308158	      9.96769978	    -12.50337420	      6.85790263	    -11.18422754	      7.23350001	      4.18178074	     17.96244908	    -15.27260184	      5.24538138	     82.65802781	     45.13651691	      0.00000000	      0.00000000	    -10.43777024	    -10.36284380	     -7.56211112	     54.24603885	     46.55261613	      0.00000000	      0.00000000
     30.43600000	     -7.38444324	     -5.79845872	     -0.37530900	      1.03688351	      0.92656226	      0.44496283	     16.79660553	     -5.72273008	     -8.85470389	     52.50952882	     52.50952882	      2.39986579	     -9.68781816	     -8.67496499	     25.04851880	     -6.35590276	     -4.28518603	     25.27331068	     25.27331068	     10.25270023	    -11.88259351	      5.60032977	    -11.19641317	      7.31605321	      3.71016163	     16.78312742	    -14.52668611	      4.00722006	     77.42000600	     45.33237775	      0.00000000	      0.00000000	    -10.84797424	    -11.06678518	     -7.34539670	     58.33636995	     46.65707199	      0.00000000	      0.00000000
     30.44757143	     -7.37841672	     -5.70763077	     -0.57506516	      1.03590649	      0.92697614	      0.44300709	     19.00998216	     -6.16897882	     -8.25347651	     55.87220491	     55.87220491	      1.09707468	    -10.94228519	     -8.06013904	     24.37777660	     -6.26947534	     -4.76917091	     25.11059487	     25.11059487	     10.73928435	    -11.42347309	      5.27153712	    -11.29769478	      7.29617860	      3.77857141	     14.62944633	    -14.89057501	      3.79902908	     75.06775713	     45.40616060	      0.00000000	      0.00000000	     -9.75620402	    -11.45597416	     -7.53091405	     59.49961095	     46.70262243	      0.00000000	      0.00000000
     30.45914286	     -7.23270696	     -5.79028099	     -0.75853612	      1.03497841	      0.92761049	      0.44140664	     21.03427874	     -6.33999779	     -7.79961698	     58.91055977	     58.91055977	      0.69455686	    -11.84164920	     -5.55311012	     23.62917152	     -6.46358881	     -5.48458469	     25.08732944	     25.08732944	     11.26718571	    -10.53861985	      4.54179004	    -11.44887609	      7.41876003	      3.74981895	     13.27104603	    -14.31399759	      2.10954586	     69.85225354	     45.62269878	      0.00000000	      0.00000000	     -9.06593098	    -12.20878935	     -7.03691119	     62.01010286	     46.72630741	      0.00000000	      0.00000000
     30.47071429	     -7.23292070	     -5.64951768	     -0.98910257	      1.03383788	      0.92806784	      0.43973854	     23.21542041	     -6.78929038	     -7.38554745	     61.52705624	     61.52705624	      0.04274278	    -12.56279483	     -4.80375134	     22.89766675	     -6.30303165	     -5.93625336	     24.77819010	     24.77819010	     11.70633281	    -10.18613674	      4.26726304	    -11.49907898	      7.32659128	      3.63497088	     11.34574989	    -14.53434866	      1.90205487	     67.43641622	     45.69776931	      0.00000000	      0.00000000	     -7.95364505	    -12.66783352	     -7.13254683	     63.17762981	     46.76446551	      0.00000000	      0.00000000
     30.48228571	     -7.04623858	     -5.73374588	     -1.17530734	      1.03276267	      0.92885338	      0.43840192	     25.08591812	     -6.97348923	     -7.23104312	     63.67484067	     63.67484067	      0.32973282	    -12.86576821	     -2.40651841	     22.01711971	     -6.45832566	     -6.51342544	     24.56943004	     24.56943004	     12.13176502	     -9.46142641	      3.56379532	    -11.75428874	      7.43576130	      3.46371013	     10.48632587	    -13.89403422	      0.35724309	     61.55743270	     45.93078647	      0.00000000	      0.00000000	     -7.10287861	    -13.60537634	     -6.33540598	     65.25845276	     46.76680372	      0.00000000	      0.00000000
     30.49385714	     -7.02087566	     -5.62686175	     -1.41596435	      1.03150945	      0.92946068	      0.43705672	     27.08670397	     -7.34790953	     -7.05809584	     65.29329625	     65.29329625	      0.10871499	    -13.33492201	     -2.13491218	     21.20690408	     -6.31919395	     -6.93884558	     24.14235571	     24.14235571	     12.49027505	     -9.19176715	      3.39670963	    -11.85577546	      7.40521907	      3.29888180	      8.58044283	    -14.16962162	      0.28865446	     59.54208247	     45.98766868	      0.00000000	      0.00000000	     -5.88006464	    -14.07690391	     -6.55828728	     66.18828890	     46.81047951	      0.00000000	      0.00000000
